<?xml version="1.0" encoding="UTF-8"?>
<svg id="_レイヤー_1" data-name="レイヤー_1" xmlns="http://www.w3.org/2000/svg" version="1.1" viewBox="0 0 311.81 113.39">
  <!-- Generator: Adobe Illustrator 29.7.0, SVG Export Plug-In . SVG Version: 2.1.1 Build 9)  -->
  <defs>
    <style>
      .st0 {
        stroke-dasharray: .94 .94;
      }

      .st0, .st1, .st2, .st3, .st4, .st5, .st6, .st7, .st8, .st9, .st10, .st11, .st12, .st13 {
        stroke-miterlimit: 10;
      }

      .st0, .st1, .st2, .st3, .st4, .st5, .st7, .st8, .st9, .st10, .st11, .st12, .st13 {
        stroke-width: .5px;
      }

      .st0, .st1, .st3, .st4, .st5, .st6, .st7, .st9, .st11, .st12, .st13 {
        fill: none;
      }

      .st0, .st1, .st4, .st7, .st8, .st9, .st10, .st11, .st12 {
        stroke: #040000;
      }

      .st14 {
        letter-spacing: .1em;
      }

      .st14, .st15 {
        font-family: SymbolMT, Symbol;
      }

      .st16 {
        fill: #211714;
      }

      .st16, .st17, .st18, .st19 {
        font-family: cmmi12, BKM-cmmi12;
      }

      .st16, .st20, .st18, .st19, .st21 {
        font-size: 12px;
      }

      .st2, .st3, .st5, .st6, .st13 {
        stroke: #231815;
      }

      .st2, .st8 {
        fill: #ddd;
      }

      .st22, .st23 {
        fill: #fff;
      }

      .st3 {
        stroke-dasharray: .99 .99;
      }

      .st23, .st4, .st8, .st10 {
        fill-rule: evenodd;
      }

      .st6 {
        stroke-width: .25px;
      }

      .st7 {
        stroke-dasharray: 1.04 1.04;
      }

      .st20, .st19, .st24 {
        fill: #231815;
      }

      .st18, .st21 {
        fill: #221714;
      }

      .st9 {
        stroke-dasharray: .93 .93;
      }

      .st25, .st10 {
        fill: #fff100;
      }

      .st11 {
        stroke-dasharray: 1 1;
      }

      .st12 {
        stroke-dasharray: 1 1;
      }

      .st13 {
        stroke-dasharray: 1.03 1.03;
      }
    </style>
  </defs>
  <g>
    <path class="st22" d="M66.26,89.64c-.14,0-.29,0-.43-.01-5.05-.26-8.93-4.97-8.64-10.51.2-3.83,2.91-6.31,6.92-6.31.7,0,1.34.07,1.85.12.1.01.2.02.29.03.1-.04.21-.08.31-.12.8-.29,1.9-.69,3.18-.69,1.54,0,2.96.59,3.99,1.68,1.75,1.83,1.85,4.41,1.77,6.19-.24,5.39-4.29,9.61-9.24,9.61Z"/>
    <path class="st3" d="M66.26,89.64c-.14,0-.29,0-.43-.01-5.05-.26-8.93-4.97-8.64-10.51.2-3.83,2.91-6.31,6.92-6.31.7,0,1.34.07,1.85.12.1.01.2.02.29.03.1-.04.21-.08.31-.12.8-.29,1.9-.69,3.18-.69,1.54,0,2.96.59,3.99,1.68,1.75,1.83,1.85,4.41,1.77,6.19-.24,5.39-4.29,9.61-9.24,9.61Z"/>
  </g>
  <g>
    <circle class="st22" cx="30.51" cy="81.37" r="4.25"/>
    <circle class="st13" cx="30.51" cy="81.37" r="4.25"/>
  </g>
  <path class="st2" d="M66.05,77.71c1.72-.04,4.95-3.02,4.7,2.6-.14,3.2-2.49,5.68-5.2,5.54-2.71-.14-4.78-2.84-4.61-6.04s3.65-2.07,5.12-2.1Z"/>
  <circle class="st24" cx="30.51" cy="81.37" r="1.42"/>
  <circle class="st24" cx="65.45" cy="80.93" r="1.42"/>
  <text class="st19" transform="translate(26.26 92.86)"><tspan x="0" y="0">x</tspan></text>
  <text class="st18" transform="translate(14.62 81.64)"><tspan x="0" y="0">ε</tspan></text>
  <text class="st19" transform="translate(41.35 77.12)"><tspan x="0" y="0">F</tspan></text>
  <text class="st19" transform="translate(83.5 73.9)"><tspan x="0" y="0">F</tspan></text>
  <text class="st19" transform="translate(137.38 73.01)"><tspan x="0" y="0">F</tspan></text>
  <g>
    <line class="st6" x1="32.57" y1="80.08" x2="67.19" y2="78.47"/>
    <path class="st24" d="M68.39,78.41c-.56.24-1.24.63-1.66,1.03l.3-.97-.39-.93c.45.36,1.17.69,1.75.87Z"/>
  </g>
  <g>
    <line class="st6" x1="30.65" y1="81.39" x2="62.83" y2="80.95"/>
    <path class="st24" d="M64.03,80.93c-.56.22-1.26.59-1.7.97l.33-.96-.36-.95c.44.37,1.15.72,1.72.93Z"/>
  </g>
  <g>
    <line class="st6" x1="69.53" y1="85.06" x2="97.58" y2="86.11"/>
    <path class="st24" d="M98.78,86.16c-.58.19-1.29.52-1.74.89l.38-.94-.31-.96c.42.4,1.11.78,1.67,1.01Z"/>
  </g>
  <g>
    <line class="st6" x1="71.73" y1="77.84" x2="102.83" y2="74.72"/>
    <path class="st24" d="M104.03,74.59c-.54.27-1.21.69-1.61,1.12l.25-.98-.44-.91c.47.34,1.21.62,1.8.78Z"/>
  </g>
  <g>
    <line class="st6" x1="66.98" y1="80.75" x2="94.44" y2="79.2"/>
    <path class="st24" d="M95.64,79.14c-.56.24-1.24.64-1.65,1.05l.29-.97-.4-.93c.46.36,1.18.68,1.76.85Z"/>
  </g>
  <g>
    <line class="st6" x1="32.54" y1="83.05" x2="66.68" y2="83.05"/>
    <path class="st24" d="M67.89,83.05c-.57.21-1.27.57-1.71.95l.34-.95-.34-.95c.44.38,1.14.74,1.71.95Z"/>
  </g>
  <line class="st6" x1="22.69" y1="77.12" x2="22.69" y2="81.37"/>
  <line class="st6" x1="21.27" y1="81.37" x2="24.11" y2="81.37"/>
  <line class="st6" x1="21.27" y1="77.12" x2="24.11" y2="77.12"/>
  <text class="st19" transform="translate(113.05 80.61)"><tspan x="0" y="0">...</tspan></text>
  <g>
    <path class="st23" d="M163.33,96.45c-.26,0-.67-.02-1.16-.14-.32.07-.65.1-.96.1-.57,0-1.02-.1-1.3-.16h-.05s-.09-.01-.09-.01l-.21-.03c-1.31-.17-2.12-.19-2.79-.19h-1.08c-1.44,0-2.81-.11-5.15-.66l-5.43-1.29,2.69-4.89c1.26-2.29,3.16-3.23,4.24-3.74.34-5.3,2.24-7.86,5.97-10.29-.01-.84.01-1.78.26-2.71-.15-.73-.22-1.77.17-3.01l.67-2.1,2.72-.87h.66c.4,0,.76.05,1.08.14l.98-.31.87.99c.58-.3,1.31-.55,2.2-.55.45,0,4.39.14,4.67,5.11.04.73.15,1.53.25,2.37.33,2.55.74,5.72-.49,8.9l-.17.43-.26.39c-.51.77-.52,2.02-.44,3.51.72.85,1.16,1.95,1.19,3.13.06,2.39-1.62,4.43-3.95,4.81-.5.09-1,.14-1.48.14-.19,0-.37,0-.55-.02-1.01.63-2.03.94-3.08.94h0Z"/>
    <g>
      <polyline class="st1" points="145.59 94.18 145.1 94.06 145.34 93.62"/>
      <path class="st0" d="M145.8,92.8l2-3.63c.97-1.76,2.32-2.72,3.38-3.3"/>
      <path class="st1" d="M151.59,85.65c.16-.08.31-.15.45-.22.01-.17.02-.34.04-.5"/>
      <path class="st7" d="M152.18,83.9c.54-3.91,2.15-6.15,4.98-8.18"/>
      <path class="st1" d="M157.59,75.42c.14-.09.27-.19.42-.28,0-.16,0-.33,0-.5"/>
      <path class="st11" d="M158.05,73.65c.04-.4.1-.81.21-1.22-.15-.73-.22-1.77.17-3.01l.36-1.14"/>
      <polyline class="st1" points="158.96 67.81 159.11 67.33 159.58 67.18"/>
      <path class="st9" d="M160.47,66.9l1.36-.43h.66c.4,0,.76.05,1.08.14l.06-.02"/>
      <polyline class="st1" points="164.08 66.44 164.56 66.29 164.88 66.67"/>
      <path class="st1" d="M165.09,66.91l.33.38c.14-.07.29-.14.45-.21"/>
      <path class="st12" d="M166.83,66.8c.25-.04.51-.07.79-.07.45,0,4.39.14,4.67,5.11.04.73.15,1.53.25,2.37.33,2.55.74,5.72-.49,8.9l-.17.43-.26.39c-.51.77-.52,2.02-.44,3.51.72.85,1.16,1.95,1.19,3.13.06,2.39-1.62,4.43-3.95,4.81-.5.09-1,.14-1.48.14-.19,0-.37,0-.55-.02-1.01.63-2.03.94-3.08.94h0c-.26,0-.67-.02-1.16-.14-.32.07-.65.1-.96.1-.57,0-1.02-.1-1.3-.16h-.05s-.09-.01-.09-.01l-.21-.03c-1.31-.17-2.12-.19-2.79-.19h-1.08c-1.44,0-2.81-.11-5.15-.66l-4.46-1.06"/>
    </g>
  </g>
  <path class="st8" d="M162.1,71.1c2.83,3.24,4.68-2.46,4.87.9.18,3.18,1.21,6.48.04,9.49-1.56,2.33-1.2,5.14-1.04,7.79,0,.33.15.5.48.57.61.05.88,1.17.18,1.26-2.28.44-2.77-1.1-2.75-1.48-.07.96-.24,1.5-.34,1.84-2.13,1.75-2.19-.52-2.39-1.15.2.63-.63.48-.58,1.09-.14,1.09-.62.53-1.58.51-4.38-.55-4.36.24-8.58-.77,1.47-2.66,4.49-1.46,4.73-5.06.2-4.78,1.58-6.08,5.67-8.43.73-.43,0-3.53.58-4.53.43-1.08-.36-1.39-.02-2.48.05-.02.64.49.69.47Z"/>
  <g>
    <line class="st6" x1="127.05" y1="87.05" x2="155.71" y2="89.41"/>
    <path class="st24" d="M156.91,89.51c-.58.16-1.32.46-1.78.81l.42-.92-.26-.98c.4.42,1.08.83,1.63,1.09Z"/>
  </g>
  <g>
    <line class="st6" x1="126.05" y1="77.16" x2="162.15" y2="75.11"/>
    <path class="st24" d="M163.36,75.04c-.56.24-1.24.64-1.65,1.05l.29-.97-.4-.93c.46.36,1.18.67,1.76.85Z"/>
  </g>
  <g>
    <line class="st6" x1="128.77" y1="81.8" x2="159.43" y2="82.98"/>
    <path class="st24" d="M160.64,83.03c-.58.19-1.29.52-1.74.88l.38-.94-.31-.96c.42.4,1.11.78,1.67,1.02Z"/>
  </g>
  <circle class="st24" cx="161.94" cy="83.03" r="1.42"/>
  <path class="st8" d="M202.13,17.37c.47.46.99.88,1.39,1.4.5.64,1.01,1.06,1.87.78.26-.09.57-.03.85-.09.16-.03.34-.13.45-.26.54-.6,1.04-1.24,1.6-1.81.49-.49.75-.4.96.26.25.8.26,1.61.18,2.44-.06.65,0,1.32.01,1.98,0,.55-.03,1.1,0,1.65.04.72.13,1.44.21,2.17.14,1.19.31,2.38.42,3.57.09.98-.19,1.91-.59,2.8-.2.43-.38.87-.63,1.27-.72,1.12-.85,2.37-.86,3.64,0,1.54.05,3.08.09,4.61,0,.16.07.31.07.47,0,.42.19.64.62.74.56.13.79.52.74,1.1-.03.32-.2.48-.51.51-1.53.15-2.23-.34-2.64-1.86-.24-.86-.46-1.73-.69-2.6,0,0-.03-.01-.16-.06.13,1.03.22,2,.38,2.96.04.22.24.47.44.61.4.29.64.7.5,1.13-.13.42-.49.49-.88.5-.19,0-.38,0-.57,0-.83-.02-1.29-.36-1.49-1.18-.25-1.03-.45-2.06-.68-3.09-.02-.09-.06-.17-.11-.29-.19.51-.33.99-.54,1.43-.22.45-.52.86-.81,1.33.28,0,.5,0,.71,0,.47.01.67.33.74.73.07.4-.08.73-.52.82-.56.11-1.07.32-1.6.54-.54.22-1.23.08-1.86.07-.28,0-.56-.07-.85-.07-1.5,0-3,.02-4.5-.24-.43-.07-.91.22-1.37.24-1.07.06-2.15.06-3.23.07-1.6,0-3.2-.01-4.8-.03-.63,0-1.27,0-1.9-.06-.2-.02-.5-.19-.55-.35-.05-.15.14-.49.3-.56.65-.27,1.31-.62,1.99-.66,2.03-.11,4.06-.1,6.09-.12,1.62-.02,2.07-.38,2.14-2.01.22-4.92,2.35-8.93,5.87-12.24.93-.88,2.05-1.6,3.16-2.25.93-.55,1.05-1.44,1.26-2.31.03-.15-.11-.36-.21-.51-.64-.95-.84-1.93-.31-2.99.29-.58.09-1.14-.07-1.7-.14-.52-.31-1.03-.41-1.55-.05-.26.22-.87.29-.89Z"/>
  <text class="st19" transform="translate(217.12 38.67)"><tspan x="0" y="0">A</tspan></text>
  <path class="st25" d="M209.72,31.8c.27-.71.43-1.45.36-2.22-.07-.7-.15-1.39-.24-2.09l-4.4,4.31h4.28Z"/>
  <g>
    <path class="st22" d="M66.26,39.64c-.14,0-.29,0-.43-.01-5.05-.26-8.93-4.97-8.64-10.51.2-3.83,2.91-6.31,6.92-6.31.7,0,1.34.07,1.85.12.1.01.2.02.29.03.1-.04.21-.08.31-.12.8-.29,1.9-.69,3.18-.69,1.54,0,2.96.59,3.99,1.68,1.75,1.83,1.85,4.41,1.77,6.19-.24,5.39-4.29,9.61-9.24,9.61Z"/>
    <path class="st3" d="M66.26,39.64c-.14,0-.29,0-.43-.01-5.05-.26-8.93-4.97-8.64-10.51.2-3.83,2.91-6.31,6.92-6.31.7,0,1.34.07,1.85.12.1.01.2.02.29.03.1-.04.21-.08.31-.12.8-.29,1.9-.69,3.18-.69,1.54,0,2.96.59,3.99,1.68,1.75,1.83,1.85,4.41,1.77,6.19-.24,5.39-4.29,9.61-9.24,9.61Z"/>
  </g>
  <g>
    <circle class="st22" cx="30.51" cy="31.37" r="4.25"/>
    <circle class="st13" cx="30.51" cy="31.37" r="4.25"/>
  </g>
  <path class="st2" d="M66.05,27.71c1.72-.04,4.95-3.02,4.7,2.6-.14,3.2-2.49,5.68-5.2,5.54-2.71-.14-4.78-2.84-4.61-6.04s3.65-2.07,5.12-2.1Z"/>
  <circle class="st24" cx="30.51" cy="31.37" r="1.42"/>
  <circle class="st24" cx="65.45" cy="30.93" r="1.42"/>
  <text class="st19" transform="translate(26.26 42.86)"><tspan x="0" y="0">x</tspan></text>
  <text class="st16" transform="translate(14.62 31.64)"><tspan x="0" y="0">ε</tspan></text>
  <text class="st19" transform="translate(41.35 27.12)"><tspan x="0" y="0">F</tspan></text>
  <text class="st19" transform="translate(83.5 23.9)"><tspan x="0" y="0">F</tspan></text>
  <text class="st19" transform="translate(137.38 23.01)"><tspan x="0" y="0">F</tspan></text>
  <text class="st19" transform="translate(182.83 22.36)"><tspan x="0" y="0">F</tspan></text>
  <text class="st20" transform="translate(247.89 35.01)"><tspan class="st15" x="0" y="0" xml:space="preserve">⇔  </tspan><tspan class="st17" x="18.5" y="-.36">x</tspan><tspan class="st15" x="25.18" y="0">∈</tspan><tspan class="st17" x="33.73" y="-.36">A</tspan></text>
  <text class="st16" transform="translate(290.43 35.83) scale(.58)"><tspan x="0" y="0">F,ε</tspan></text>
  <g>
    <line class="st6" x1="32.57" y1="30.08" x2="67.19" y2="28.47"/>
    <path class="st24" d="M68.39,28.41c-.56.24-1.24.63-1.66,1.03l.3-.97-.39-.93c.45.36,1.17.69,1.75.87Z"/>
  </g>
  <g>
    <line class="st6" x1="30.65" y1="31.39" x2="62.83" y2="30.95"/>
    <path class="st24" d="M64.03,30.93c-.56.22-1.26.59-1.7.97l.33-.96-.36-.95c.44.37,1.15.72,1.72.93Z"/>
  </g>
  <g>
    <line class="st6" x1="69.53" y1="35.05" x2="97.58" y2="36.11"/>
    <path class="st24" d="M98.78,36.16c-.58.19-1.29.52-1.74.89l.38-.94-.31-.96c.42.4,1.11.78,1.67,1.01Z"/>
  </g>
  <g>
    <line class="st6" x1="71.73" y1="27.84" x2="102.83" y2="24.72"/>
    <path class="st24" d="M104.03,24.59c-.54.27-1.21.69-1.61,1.12l.25-.98-.44-.91c.47.34,1.21.62,1.8.78Z"/>
  </g>
  <g>
    <line class="st6" x1="66.98" y1="30.75" x2="94.44" y2="29.2"/>
    <path class="st24" d="M95.64,29.14c-.56.24-1.24.64-1.65,1.05l.29-.97-.4-.93c.46.36,1.18.68,1.76.85Z"/>
  </g>
  <g>
    <line class="st6" x1="32.54" y1="33.05" x2="66.68" y2="33.05"/>
    <path class="st24" d="M67.89,33.05c-.57.21-1.27.57-1.71.95l.34-.95-.34-.95c.44.38,1.14.74,1.71.95Z"/>
  </g>
  <line class="st6" x1="22.69" y1="27.12" x2="22.69" y2="31.37"/>
  <line class="st6" x1="21.27" y1="31.37" x2="24.11" y2="31.37"/>
  <line class="st6" x1="21.27" y1="27.12" x2="24.11" y2="27.12"/>
  <text class="st19" transform="translate(113.05 30.61)"><tspan x="0" y="0">...</tspan></text>
  <g>
    <path class="st23" d="M163.33,46.45c-.26,0-.67-.02-1.16-.14-.32.07-.65.1-.96.1-.57,0-1.02-.1-1.3-.16h-.05s-.09-.01-.09-.01l-.21-.03c-1.31-.17-2.12-.19-2.79-.19h-1.08c-1.44,0-2.81-.11-5.15-.66l-5.43-1.29,2.69-4.89c1.26-2.29,3.16-3.23,4.24-3.74.34-5.3,2.24-7.86,5.97-10.29-.01-.84.01-1.78.26-2.71-.15-.73-.22-1.77.17-3.01l.67-2.1,2.72-.87h.66c.4,0,.76.05,1.08.14l.98-.31.87.99c.58-.3,1.31-.55,2.2-.55.45,0,4.39.14,4.67,5.11.04.73.15,1.53.25,2.37.33,2.55.74,5.72-.49,8.9l-.17.43-.26.39c-.51.77-.52,2.02-.44,3.51.72.85,1.16,1.95,1.19,3.13.06,2.39-1.62,4.43-3.95,4.81-.5.09-1,.14-1.48.14-.19,0-.37,0-.55-.02-1.01.63-2.03.94-3.08.94h0Z"/>
    <g>
      <polyline class="st1" points="145.59 44.18 145.1 44.06 145.34 43.62"/>
      <path class="st0" d="M145.8,42.8l2-3.63c.97-1.76,2.32-2.72,3.38-3.3"/>
      <path class="st1" d="M151.59,35.65c.16-.08.31-.15.45-.22.01-.17.02-.34.04-.5"/>
      <path class="st7" d="M152.18,33.9c.54-3.91,2.15-6.15,4.98-8.18"/>
      <path class="st1" d="M157.59,25.42c.14-.09.27-.19.42-.28,0-.16,0-.33,0-.5"/>
      <path class="st11" d="M158.05,23.65c.04-.4.1-.81.21-1.22-.15-.73-.22-1.77.17-3.01l.36-1.14"/>
      <polyline class="st1" points="158.96 17.81 159.11 17.33 159.58 17.18"/>
      <path class="st9" d="M160.47,16.9l1.36-.43h.66c.4,0,.76.05,1.08.14l.06-.02"/>
      <polyline class="st1" points="164.08 16.44 164.56 16.29 164.88 16.67"/>
      <path class="st1" d="M165.09,16.91l.33.38c.14-.07.29-.14.45-.21"/>
      <path class="st12" d="M166.83,16.8c.25-.04.51-.07.79-.07.45,0,4.39.14,4.67,5.11.04.73.15,1.53.25,2.37.33,2.55.74,5.72-.49,8.9l-.17.43-.26.39c-.51.77-.52,2.02-.44,3.51.72.85,1.16,1.95,1.19,3.13.06,2.39-1.62,4.43-3.95,4.81-.5.09-1,.14-1.48.14-.19,0-.37,0-.55-.02-1.01.63-2.03.94-3.08.94h0c-.26,0-.67-.02-1.16-.14-.32.07-.65.1-.96.1-.57,0-1.02-.1-1.3-.16h-.05s-.09-.01-.09-.01l-.21-.03c-1.31-.17-2.12-.19-2.79-.19h-1.08c-1.44,0-2.81-.11-5.15-.66l-4.46-1.06"/>
    </g>
  </g>
  <path class="st8" d="M162.1,21.1c2.83,3.24,4.68-2.46,4.87.9.18,3.18,1.21,6.48.04,9.49-1.56,2.33-1.2,5.14-1.04,7.79,0,.33.15.5.48.57.61.05.88,1.17.18,1.26-2.28.44-2.77-1.1-2.75-1.48-.07.96-.24,1.5-.34,1.84-2.13,1.75-2.19-.52-2.39-1.15.2.63-.63.48-.58,1.09-.14,1.09-.62.53-1.58.51-4.38-.55-4.36.24-8.58-.77,1.47-2.66,4.49-1.46,4.73-5.06.2-4.78,1.58-6.08,5.67-8.43.73-.43,0-3.53.58-4.53.43-1.08-.36-1.39-.02-2.48.05-.02.64.49.69.47Z"/>
  <g>
    <line class="st6" x1="127.05" y1="37.05" x2="155.71" y2="39.41"/>
    <path class="st24" d="M156.91,39.51c-.58.16-1.32.46-1.78.81l.42-.92-.26-.98c.4.42,1.08.83,1.63,1.09Z"/>
  </g>
  <g>
    <line class="st6" x1="126.05" y1="27.16" x2="162.15" y2="25.11"/>
    <path class="st24" d="M163.36,25.04c-.56.24-1.24.64-1.65,1.05l.29-.97-.4-.93c.46.36,1.18.67,1.76.85Z"/>
  </g>
  <g>
    <line class="st6" x1="169.23" y1="26.8" x2="204.52" y2="22.5"/>
    <path class="st24" d="M205.72,22.36c-.54.28-1.19.72-1.58,1.15l.23-.99-.46-.9c.48.33,1.22.6,1.81.74Z"/>
  </g>
  <g>
    <line class="st6" x1="170.52" y1="30.86" x2="208.06" y2="30.72"/>
    <path class="st24" d="M209.27,30.72c-.57.21-1.27.58-1.71.96l.34-.95-.35-.95c.44.38,1.14.74,1.71.94Z"/>
  </g>
  <g>
    <line class="st6" x1="163.36" y1="33.03" x2="199.57" y2="35.01"/>
    <path class="st24" d="M200.78,35.08c-.58.18-1.3.5-1.76.86l.4-.93-.29-.97c.42.4,1.1.8,1.65,1.04Z"/>
  </g>
  <g>
    <line class="st6" x1="169.16" y1="39.1" x2="197.81" y2="41.46"/>
    <path class="st24" d="M199.02,41.56c-.58.16-1.32.46-1.78.81l.42-.92-.26-.98c.4.42,1.08.83,1.63,1.09Z"/>
  </g>
  <g>
    <line class="st6" x1="128.77" y1="31.8" x2="159.43" y2="32.98"/>
    <path class="st24" d="M160.64,33.03c-.58.19-1.29.52-1.74.88l.38-.94-.31-.96c.42.4,1.11.78,1.67,1.02Z"/>
  </g>
  <path class="st5" d="M234.68,31.68v13.98h-24.73v-13.98h-4.52l16.88-16.57,16.88,16.57h-4.52Z"/>
  <path class="st4" d="M202.13,17.37c.47.46.99.88,1.39,1.4.5.64,1.01,1.06,1.87.78.26-.09.57-.03.85-.09.16-.03.34-.13.45-.26.54-.6,1.04-1.24,1.6-1.81.49-.49.75-.4.96.26.25.8.26,1.61.18,2.44-.06.65,0,1.32.01,1.98,0,.55-.03,1.1,0,1.65.04.72.13,1.44.21,2.17.14,1.19.31,2.38.42,3.57.09.98-.19,1.91-.59,2.8-.2.43-.38.87-.63,1.27-.72,1.12-.85,2.37-.86,3.64,0,1.54.05,3.08.09,4.61,0,.16.07.31.07.47,0,.42.19.64.62.74.56.13.79.52.74,1.1-.03.32-.2.48-.51.51-1.53.15-2.23-.34-2.64-1.86-.24-.86-.46-1.73-.69-2.6,0,0-.03-.01-.16-.06.13,1.03.22,2,.38,2.96.04.22.24.47.44.61.4.29.64.7.5,1.13-.13.42-.49.49-.88.5-.19,0-.38,0-.57,0-.83-.02-1.29-.36-1.49-1.18-.25-1.03-.45-2.06-.68-3.09-.02-.09-.06-.17-.11-.29-.19.51-.33.99-.54,1.43-.22.45-.52.86-.81,1.33.28,0,.5,0,.71,0,.47.01.67.33.74.73.07.4-.08.73-.52.82-.56.11-1.07.32-1.6.54-.54.22-1.23.08-1.86.07-.28,0-.56-.07-.85-.07-1.5,0-3,.02-4.5-.24-.43-.07-.91.22-1.37.24-1.07.06-2.15.06-3.23.07-1.6,0-3.2-.01-4.8-.03-.63,0-1.27,0-1.9-.06-.2-.02-.5-.19-.55-.35-.05-.15.14-.49.3-.56.65-.27,1.31-.62,1.99-.66,2.03-.11,4.06-.1,6.09-.12,1.62-.02,2.07-.38,2.14-2.01.22-4.92,2.35-8.93,5.87-12.24.93-.88,2.05-1.6,3.16-2.25.93-.55,1.05-1.44,1.26-2.31.03-.15-.11-.36-.21-.51-.64-.95-.84-1.93-.31-2.99.29-.58.09-1.14-.07-1.7-.14-.52-.31-1.03-.41-1.55-.05-.26.22-.87.29-.89Z"/>
  <path class="st10" d="M222.13,67.37c.47.46.99.88,1.39,1.4.5.64,1.01,1.06,1.87.78.26-.09.57-.03.85-.09.16-.03.34-.13.45-.26.54-.6,1.04-1.24,1.6-1.81.49-.49.75-.4.96.26.25.8.26,1.61.18,2.44-.06.65,0,1.32.01,1.98,0,.55-.03,1.1,0,1.65.04.72.13,1.44.21,2.17.14,1.19.31,2.38.42,3.57.09.98-.19,1.91-.59,2.8-.2.43-.38.87-.63,1.27-.72,1.12-.85,2.37-.86,3.64,0,1.54.05,3.08.09,4.61,0,.16.07.31.07.47,0,.42.19.64.62.74.56.13.79.52.74,1.1-.03.32-.2.48-.51.51-1.53.15-2.23-.34-2.64-1.86-.24-.86-.46-1.73-.69-2.6,0,0-.03-.01-.16-.06.13,1.03.22,2,.38,2.96.04.22.24.47.44.61.4.29.64.7.5,1.13-.13.42-.49.49-.88.5-.19,0-.38,0-.57,0-.83-.02-1.29-.36-1.49-1.18-.25-1.03-.45-2.06-.68-3.09-.02-.09-.06-.17-.11-.29-.19.51-.33.99-.54,1.43-.22.45-.52.86-.81,1.33.28,0,.5,0,.71,0,.47.01.67.33.74.73.07.4-.08.73-.52.82-.56.11-1.07.32-1.6.54-.54.22-1.23.08-1.86.07-.28,0-.56-.07-.85-.07-1.5,0-3,.02-4.5-.24-.43-.07-.91.22-1.37.24-1.07.06-2.15.06-3.23.07-1.6,0-3.2-.01-4.8-.03-.63,0-1.27,0-1.9-.06-.2-.02-.5-.19-.55-.35-.05-.15.14-.49.3-.56.65-.27,1.31-.62,1.99-.66,2.03-.11,4.06-.1,6.09-.12,1.62-.02,2.07-.38,2.14-2.01.22-4.92,2.35-8.93,5.87-12.24.93-.88,2.05-1.6,3.16-2.25.93-.55,1.05-1.44,1.26-2.31.03-.15-.11-.36-.21-.51-.64-.95-.84-1.93-.31-2.99.29-.58.09-1.14-.07-1.7-.14-.52-.31-1.03-.41-1.55-.05-.26.22-.87.29-.89Z"/>
  <text class="st19" transform="translate(210.1 69.98)"><tspan x="0" y="0">A</tspan></text>
  <text class="st19" transform="translate(182.83 72.36)"><tspan x="0" y="0">F</tspan></text>
  <text class="st20" transform="translate(247.89 85.01)"><tspan class="st15" x="0" y="0" xml:space="preserve">⇔  </tspan><tspan class="st17" x="18.5" y="-.36">x</tspan><tspan class="st15" x="25.18" y="0">∈</tspan><tspan class="st17" x="33.73" y="-.36">A</tspan></text>
  <text class="st21" transform="translate(290.43 85.83) scale(.58)"><tspan class="st17" x="0" y="0">F,</tspan><tspan class="st14" x="10.87" y="0">-</tspan><tspan class="st17" x="18.66" y="0">ε</tspan></text>
  <g>
    <line class="st6" x1="170.09" y1="76.91" x2="226" y2="72.45"/>
    <path class="st24" d="M227.2,72.36c-.55.26-1.22.67-1.63,1.08l.27-.98-.42-.92c.47.34,1.2.65,1.78.81Z"/>
  </g>
  <g>
    <line class="st6" x1="171.41" y1="80.87" x2="226.51" y2="80.73"/>
    <path class="st24" d="M227.72,80.73c-.57.21-1.27.57-1.71.96l.34-.95-.35-.95c.44.38,1.14.74,1.71.95Z"/>
  </g>
  <g>
    <line class="st6" x1="163.36" y1="83.03" x2="219.39" y2="85.57"/>
    <path class="st24" d="M220.6,85.62c-.58.18-1.3.51-1.75.87l.39-.93-.3-.97c.42.4,1.11.79,1.66,1.03Z"/>
  </g>
  <g>
    <line class="st6" x1="170.09" y1="89.03" x2="215.76" y2="91.5"/>
    <path class="st24" d="M216.97,91.56c-.58.18-1.3.5-1.76.86l.39-.93-.29-.97c.42.4,1.1.8,1.66,1.04Z"/>
  </g>
  <path class="st5" d="M237.31,80.2v20.96h-37.08v-20.96h-6.77l25.31-24.85,25.31,24.85h-6.77Z"/>
  <path class="st4" d="M222.13,67.37c.47.46.99.88,1.39,1.4.5.64,1.01,1.06,1.87.78.26-.09.57-.03.85-.09.16-.03.34-.13.45-.26.54-.6,1.04-1.24,1.6-1.81.49-.49.75-.4.96.26.25.8.26,1.61.18,2.44-.06.65,0,1.32.01,1.98,0,.55-.03,1.1,0,1.65.04.72.13,1.44.21,2.17.14,1.19.31,2.38.42,3.57.09.98-.19,1.91-.59,2.8-.2.43-.38.87-.63,1.27-.72,1.12-.85,2.37-.86,3.64,0,1.54.05,3.08.09,4.61,0,.16.07.31.07.47,0,.42.19.64.62.74.56.13.79.52.74,1.1-.03.32-.2.48-.51.51-1.53.15-2.23-.34-2.64-1.86-.24-.86-.46-1.73-.69-2.6,0,0-.03-.01-.16-.06.13,1.03.22,2,.38,2.96.04.22.24.47.44.61.4.29.64.7.5,1.13-.13.42-.49.49-.88.5-.19,0-.38,0-.57,0-.83-.02-1.29-.36-1.49-1.18-.25-1.03-.45-2.06-.68-3.09-.02-.09-.06-.17-.11-.29-.19.51-.33.99-.54,1.43-.22.45-.52.86-.81,1.33.28,0,.5,0,.71,0,.47.01.67.33.74.73.07.4-.08.73-.52.82-.56.11-1.07.32-1.6.54-.54.22-1.23.08-1.86.07-.28,0-.56-.07-.85-.07-1.5,0-3,.02-4.5-.24-.43-.07-.91.22-1.37.24-1.07.06-2.15.06-3.23.07-1.6,0-3.2-.01-4.8-.03-.63,0-1.27,0-1.9-.06-.2-.02-.5-.19-.55-.35-.05-.15.14-.49.3-.56.65-.27,1.31-.62,1.99-.66,2.03-.11,4.06-.1,6.09-.12,1.62-.02,2.07-.38,2.14-2.01.22-4.92,2.35-8.93,5.87-12.24.93-.88,2.05-1.6,3.16-2.25.93-.55,1.05-1.44,1.26-2.31.03-.15-.11-.36-.21-.51-.64-.95-.84-1.93-.31-2.99.29-.58.09-1.14-.07-1.7-.14-.52-.31-1.03-.41-1.55-.05-.26.22-.87.29-.89Z"/>
  <circle class="st24" cx="161.94" cy="33.03" r="1.42"/>
  <circle class="st24" cx="202.02" cy="35.62" r="1.42"/>
  <circle class="st24" cx="222.02" cy="85.62" r="1.42"/>
  <g>
    <line class="st6" x1="165.74" y1="29.49" x2="201.68" y2="28.99"/>
    <path class="st24" d="M202.88,28.98c-.57.22-1.26.59-1.7.97l.33-.96-.36-.95c.44.37,1.15.72,1.72.93Z"/>
  </g>
</svg>